<svg xmlns="http://www.w3.org/2000/svg" viewBox="0 0 512 512"><defs><style>.cls-3{fill:#da8ab2}.cls-4{fill:#c17fa3}</style></defs><circle cx="256" cy="256" r="256" style="fill:#4e5e9c" id="BULINE"/><g id="Icons"><circle cx="257.74" cy="257.82" r="214.48" style="fill:#475784"/><path class="cls-3" d="M387.09 53H292a3.38 3.38 0 0 0-3.38 3.38v42.45a1 1 0 0 0 1.77.56 21 21 0 1 1 0 23.29 1 1 0 0 0-1.78.56v42.41A3.38 3.38 0 0 0 292 169h40.6a21 21 0 1 0 24.58 0h29.92a17.54 17.54 0 0 0 17.54-17.54V70.58A17.55 17.55 0 0 0 387.09 53z"/><path class="cls-4" d="M342.82 186a21 21 0 0 1 8.71-17H332.6a21 21 0 0 0 21.76 35.73A21 21 0 0 1 342.82 186zM307.57 165.65V132a20.91 20.91 0 0 1-17.15-9.34 1 1 0 0 0-1.78.56v42.41A3.38 3.38 0 0 0 292 169h19a3.38 3.38 0 0 1-3.43-3.35zM311 53h-19a3.38 3.38 0 0 0-3.38 3.38v42.45a1 1 0 0 0 1.77.56A21 21 0 0 1 307.57 90V56.41A3.39 3.39 0 0 1 311 53z"/><path class="cls-3" d="M396.45 250.32a62.93 62.93 0 0 0-5-24.74 2.33 2.33 0 0 0-4.48.89v13.81a17.54 17.54 0 0 1-17.54 17.54h-29.95a21 21 0 0 1 8.71 17 19.78 19.78 0 0 1-.15 2.45 21 21 0 1 1-33.14-19.47h-40.58a3.38 3.38 0 0 1-3.38-3.38V212a1 1 0 0 1 1.78-.56 21 21 0 1 0 2.63-26.44 20.11 20.11 0 0 0-2.62 3.2 1 1 0 0 1-1.79-.56V145.2a2.6 2.6 0 0 0-2.07-2.46c-.53-.1-1.06-.18-1.59-.27l-1.21-.17-1.25-.15c-.5-.06-1-.1-1.5-.14s-.75-.06-1.13-.08-.74-.05-1.11-.06c-.77 0-1.55-.05-2.33-.05-1 0-1.89 0-2.82.07-.45 0-.89.05-1.33.09s-1 .07-1.46.12l-1.05.11c-.78.09-1.57.2-2.34.33l-1 .17-1 .2c-.41.08-.82.16-1.22.26l-.62.14c-.36.08-.71.16-1.06.26q-.88.21-1.77.48c-.36.1-.73.21-1.09.33q-1.05.31-2.07.69l-.93.34-.81.31-.76.31-1.23.52-1.21.55c-.41.19-.81.38-1.2.58s-.68.33-1 .51q-2.07 1.08-4 2.32c-.24.15-.48.3-.71.46s-.74.48-1.1.73l-1.08.76c-.78.56-1.55 1.15-2.3 1.75s-1.29 1.07-1.93 1.62-1.31 1.17-1.94 1.79c-.28.29-.57.57-.86.85-.22-.26-.43-.52-.67-.77-.58-.68-1.17-1.34-1.79-2l-.87-.87a43.16 43.16 0 0 0-4.14-3.61c-.25-.2-.51-.39-.77-.58a43.63 43.63 0 0 0-5-3.21c-.27-.16-.56-.31-.84-.46a44.81 44.81 0 0 0-4.94-2.22c-.32-.13-.63-.24-.95-.35l-.91-.31-.88-.28-.8-.24-1-.28a42.53 42.53 0 0 0-4.7-1l-1-.14-.82-.1-.81-.08h-.39c-.37 0-.74-.06-1.11-.08s-.9-.05-1.35-.06h-1.32a45.38 45.38 0 0 0-44.12 34.82 31.91 31.91 0 0 0-46.63 28.3v2.24l.06.74a56.38 56.38 0 0 0 17.99 109.76h2.51c.19.66.39 1.3.6 1.95 0 .16.1.32.16.48.16.48.33 1 .5 1.45a63.12 63.12 0 0 0 5.35 11.14c.43.71.88 1.42 1.34 2.11.35.53.7 1 1.06 1.55s.73 1 1.1 1.52c.51.67 1 1.32 1.54 2 .25.32.52.63.78.94.53.63 1.07 1.25 1.62 1.84s1.17 1.25 1.78 1.85a60.05 60.05 0 0 0 4.49 4.11c.35.3.71.59 1.08.88 1.31 1 2.65 2 4 2.95.69.47 1.39.92 2.11 1.36l.91.55a63.1 63.1 0 0 0 8.1 4.05c.38.16.75.31 1.13.45.79.31 1.59.6 2.39.88l1.21.4 1.05.33c1.7.51 3.43 1 5.19 1.33l1.24.24c.43.09.86.16 1.28.23.6.1 1.2.2 1.8.28l.79.1c.6.08 1.21.15 1.82.2.42.05.84.08 1.25.11s.62.05.93.06.85.06 1.27.07h2.68a62.82 62.82 0 0 0 10.78-.94c.11.47.22.94.34 1.4s.25.93.38 1.39c.26.92.55 1.83.86 2.73l.48 1.33c.16.45.34.89.52 1.33s.36.88.55 1.31c.34.79.7 1.56 1.08 2.32.25.5.51 1 .78 1.5.53 1 1.09 2 1.68 2.93.29.48.59.95.9 1.42a53.37 53.37 0 0 0 4.06 5.38c1 1.13 2 2.23 3 3.28.61.61 1.24 1.2 1.88 1.78l1 .85c.5.43 1 .84 1.5 1.25l.69.54.18.14c.83.64 1.68 1.25 2.55 1.84s1.61 1.06 2.43 1.55c.37.23.74.45 1.12.66s.53.3.8.45c.49.27 1 .53 1.5.79s.77.4 1.17.58l.83.39 1 .46 1 .41a53.22 53.22 0 0 0 7.2 2.37c.31.09.63.16.95.24q.77.18 1.53.33l1.31.25 1.34.22 1.35.19q.68.09 1.35.15c.94.1 1.89.17 2.84.21.43 0 .86 0 1.29.05h1.39c1.27 0 2.52-.05 3.77-.14a53.54 53.54 0 0 0 13.28-2.6l1.06-.36.94-.34a48.98 48.98 0 0 0 4-1.7l.36-.17c1-.5 2.68-1.37 3.67-1.94.36-.2.71-.41 1.06-.63l1.22-.77c.38-.23.74-.48 1.1-.73s.73-.49 1.08-.75.81-.59 1.2-.89.86-.65 1.28-1 .74-.6 1.1-.91.73-.63 1.08-.95l1.06-1 1-1c.4-.4.79-.8 1.17-1.21s.81-.87 1.19-1.31l.88.13C290 410.79 309.68 441 346 461.14a21.39 21.39 0 0 0 14 2.4 21.17 21.17 0 0 0 17.53-20.85 20.84 20.84 0 0 0-2.95-10.69c-10.28-17.35-20.9-44.62-23-84.74a45.56 45.56 0 0 0 7.2-11.39 31.89 31.89 0 0 0 28.16-52.27 62.81 62.81 0 0 0 9.51-33.28z"/><path class="cls-4" d="M271.62 362.14a54.29 54.29 0 0 0 9.54 20.45A54.24 54.24 0 0 1 185 362.14a63.84 63.84 0 0 1-10.78.93 63.15 63.15 0 0 1-60.6-45.44c-.84 0-1.67.07-2.51.07A56.38 56.38 0 0 1 93 207.93c-.09-1-.14-2-.14-3a31.91 31.91 0 0 1 46.63-28.3 45.36 45.36 0 0 1 79.24-18.16 56.2 56.2 0 0 1 40-16.65 55.43 55.43 0 0 1 6.07.33 45.39 45.39 0 0 0-38.68 34.48 31.91 31.91 0 0 0-46.63 28.3c0 1 .05 2 .14 3a56.38 56.38 0 0 0 18.1 109.77c.84 0 1.68 0 2.52-.07a63.15 63.15 0 0 0 60.6 45.44 63.93 63.93 0 0 0 10.77-.93z"/><path class="cls-4" d="M294.15 201.94a42.28 42.28 0 0 0-50 52.07 3.32 3.32 0 0 1-5.45 3.33l-.31-.29c-16.92-16.25-17.12-44-.46-60.54a42.23 42.23 0 0 1 33-12.11v3.22a1 1 0 0 0 1.78.56 20.73 20.73 0 0 1 2.63-3.2A42.06 42.06 0 0 1 297 196.06l.3.29a3.33 3.33 0 0 1-3.15 5.59zM357.48 296.18a32.68 32.68 0 0 1-45.53 3l-.25-.21a2.57 2.57 0 0 1 2.15-4.45 32.76 32.76 0 0 0 7.06.35A21 21 0 0 0 348 277.29a32.44 32.44 0 0 0 3.35-19.46h9.94a33.09 33.09 0 0 1-3.81 38.35z"/></g></svg>